<svg xmlns="http://www.w3.org/2000/svg" width="600" height="145" viewBox="0 0 600 145">
<g>
<path d="M 212.25 124.31 C207.83,126.35 205.77,126.52 182.35,126.81 C168.51,126.98 156.99,126.76 156.73,126.31 C156.48,125.87 156.18,102.62 156.07,74.66 L 155.86 23.83 L 177.68 24.17 C197.91,24.49 199.86,24.68 204.49,26.81 C211.04,29.82 213.77,32.44 216.62,38.50 C219.33,44.24 219.81,54.99 217.64,61.07 C216.38,64.59 216.41,64.67 220.08,67.31 C224.88,70.77 229.66,78.02 231.66,84.91 C233.63,91.70 233.03,99.74 230.01,106.75 C227.35,112.95 219.01,121.18 212.25,124.31 ZM 143.08 127.23 L 140.17 130.50 L 92.65 130.78 L 45.13 131.06 L 41.67 128.02 C37.44,124.30 36.52,121.09 38.40,116.58 C40.04,112.67 53.93,92.26 58.55,87.00 C61.90,83.17 69.45,72.73 75.28,63.83 L 79.00 58.16 L 79.00 45.99 C79.00,34.72 78.84,33.69 76.83,32.07 C74.06,29.82 73.89,24.29 76.52,22.36 C77.88,21.37 82.13,21.00 92.19,21.00 C104.67,21.00 106.19,21.19 108.00,23.00 C110.67,25.67 110.52,28.23 107.50,31.82 C105.14,34.62 105.00,35.46 105.00,46.65 L 105.00 58.52 L 113.62 71.01 C118.36,77.88 123.92,85.53 125.97,88.00 C128.02,90.47 133.36,97.86 137.85,104.41 C147.36,118.31 148.12,121.60 143.08,127.23 ZM 356.70 127.50 C350.69,129.28 347.17,129.28 340.68,127.50 C331.92,125.09 323.74,118.22 319.24,109.50 C317.27,105.69 316.55,102.54 316.20,96.26 C315.79,88.76 316.00,87.52 318.57,82.26 C322.32,74.58 329.52,67.70 336.53,65.08 C345.82,61.60 358.77,62.77 364.07,67.56 C365.92,69.24 366.00,69.22 366.00,67.15 C366.00,65.11 366.45,65.00 375.00,65.00 L 384.00 65.00 L 384.00 127.00 L 375.00 127.00 C366.67,127.00 366.00,126.85 366.00,125.00 C366.00,122.63 364.73,122.42 363.00,124.50 C362.32,125.32 359.48,126.67 356.70,127.50 ZM 419.00 115.45 L 419.00 127.00 L 401.00 127.00 L 401.00 21.00 L 419.00 21.00 L 419.00 81.17 L 427.85 73.09 L 436.69 65.00 L 449.10 65.01 L 461.50 65.03 L 453.00 73.30 C448.33,77.85 443.00,82.80 441.17,84.29 L 437.85 87.00 L 442.27 92.25 C446.32,97.06 465.63,122.83 467.37,125.75 C467.95,126.72 465.69,127.00 457.31,127.00 L 446.49 127.00 L 436.00 113.05 C430.22,105.38 425.23,99.08 424.90,99.05 C424.56,99.02 423.10,100.10 421.65,101.45 C419.08,103.83 419.00,104.25 419.00,115.45 ZM 45.50 126.79 C46.92,127.61 60.23,127.95 91.28,127.97 C139.29,128.00 141.26,127.79 142.60,122.46 C143.45,119.06 142.02,116.23 132.76,103.00 C126.44,93.98 125.06,92.55 122.95,92.82 C121.60,93.00 115.78,93.22 110.00,93.32 C100.02,93.49 99.18,93.34 93.00,90.29 C85.23,86.44 76.28,84.00 69.98,84.00 C64.22,84.00 63.34,84.88 50.59,103.50 C39.44,119.79 38.75,122.92 45.50,126.79 ZM 283.97 127.42 C274.35,130.27 265.45,128.71 256.57,122.59 C247.04,116.03 242.75,107.71 242.60,95.50 C242.51,88.68 242.90,86.68 245.24,81.91 C248.54,75.20 254.77,68.79 260.96,65.74 C264.70,63.89 267.18,63.50 275.00,63.50 C283.39,63.51 285.10,63.83 289.65,66.22 C298.60,70.93 305.52,81.74 306.16,92.00 L 306.50 97.50 L 282.63 97.77 L 258.76 98.04 L 259.37 101.10 C260.70,107.73 268.27,113.96 275.00,113.96 C277.43,113.96 283.83,111.26 287.14,108.85 C288.51,107.85 289.70,108.44 294.41,112.47 C299.90,117.16 300.00,117.34 298.28,119.27 C295.43,122.46 289.72,125.71 283.97,127.42 ZM 516.84 125.97 C509.53,129.12 500.87,129.46 493.06,126.91 C487.80,125.20 485.52,123.69 480.55,118.66 C473.29,111.29 470.98,105.71 470.89,95.25 C470.77,82.96 477.35,72.10 488.50,66.17 C492.90,63.83 494.64,63.51 503.00,63.51 C511.37,63.51 513.10,63.83 517.59,66.19 C526.95,71.12 534.12,82.29 534.37,92.35 L 534.50 97.50 L 510.75 97.77 C495.54,97.94 487.00,98.40 487.00,99.05 C487.00,104.00 494.47,112.28 500.03,113.51 C503.97,114.37 511.32,112.41 513.60,109.88 C514.54,108.85 515.75,108.00 516.30,108.00 C516.84,108.00 519.73,110.09 522.71,112.63 L 528.13 117.27 L 524.93 120.57 C523.18,122.38 519.53,124.82 516.84,125.97 ZM 565.85 108.77 L 565.63 127.00 L 548.00 127.00 L 548.00 65.00 L 555.50 65.00 C562.96,65.00 563.00,65.01 563.00,67.67 L 563.00 70.35 L 565.26 68.22 C566.51,67.05 569.18,65.41 571.19,64.57 C575.71,62.68 585.53,61.43 586.29,62.65 C586.59,63.15 586.37,67.25 585.79,71.78 L 584.74 80.00 L 581.58 80.00 C577.10,80.00 569.85,83.96 567.81,87.52 C566.37,90.04 566.04,93.60 565.85,108.77 ZM 101.72 89.91 C107.01,91.15 113.83,91.06 118.27,89.67 L 122.03 88.50 L 116.67 81.30 C113.72,77.34 109.10,70.71 106.41,66.57 C101.61,59.19 101.41,59.03 97.36,59.01 C94.50,59.00 93.02,58.51 92.60,57.41 C91.63,54.87 92.78,54.09 96.62,54.71 C100.37,55.32 101.95,54.17 101.98,50.80 C102.00,49.49 100.94,49.04 97.25,48.80 C93.83,48.59 92.50,48.08 92.50,47.00 C92.50,45.92 93.83,45.41 97.25,45.20 C101.13,44.95 102.00,44.55 102.00,43.00 C102.00,41.46 101.14,41.05 97.33,40.80 C90.92,40.39 90.45,38.21 96.68,37.81 C100.31,37.58 101.56,37.07 101.81,35.75 C102.11,34.18 101.13,34.00 92.07,34.00 L 82.00 34.00 L 82.00 60.17 L 75.50 69.69 C71.93,74.92 69.00,79.33 69.00,79.47 C69.00,79.62 71.14,80.03 73.76,80.37 C78.72,81.03 89.36,84.58 94.79,87.39 C96.52,88.29 99.64,89.42 101.72,89.91 ZM 175.60 108.34 C176.65,108.64 182.90,108.77 189.50,108.63 C199.59,108.41 202.18,108.02 205.74,106.17 C213.21,102.29 216.12,92.99 211.98,86.19 C208.54,80.55 203.56,79.05 188.25,79.02 L 175.00 79.00 L 175.00 82.84 C175.00,84.96 174.71,91.44 174.35,97.24 C173.75,107.05 173.84,107.84 175.60,108.34 ZM 343.50 110.58 C351.01,113.94 359.92,110.61 363.75,103.03 C369.75,91.16 362.67,79.67 349.43,79.79 C337.43,79.89 330.02,89.97 334.06,100.68 C335.47,104.40 339.77,108.92 343.50,110.58 ZM 175.00 42.82 L 175.00 60.07 L 185.64 59.78 C195.82,59.51 196.38,59.38 198.24,56.88 C200.65,53.65 200.82,47.39 198.57,45.14 C197.30,43.87 194.46,43.42 185.97,43.16 ZM 81.03 107.48 C79.42,108.32 77.96,108.94 77.80,108.86 C77.63,108.79 76.52,108.54 75.33,108.30 C72.31,107.72 68.25,103.41 67.50,100.00 C66.12,93.70 72.38,88.10 79.35,89.41 C88.25,91.08 89.38,103.17 81.03,107.48 ZM 260.70 87.37 C261.68,88.35 287.81,88.11 288.43,87.12 C289.22,85.84 285.30,81.20 281.96,79.48 C277.38,77.11 270.09,77.58 265.76,80.52 C261.92,83.13 259.60,86.27 260.70,87.37 ZM 488.72 87.39 C489.83,88.50 515.84,88.07 516.55,86.93 C517.35,85.62 513.51,81.33 509.80,79.40 C506.00,77.43 499.59,77.66 495.11,79.94 C491.30,81.89 487.57,86.23 488.72,87.39 ZM 78.69 29.36 C79.08,29.74 85.26,29.93 92.44,29.78 C105.13,29.51 105.51,29.44 105.82,27.25 C106.14,25.01 106.09,25.00 92.07,25.00 C79.09,25.00 78.00,25.14 78.00,26.83 C78.00,27.84 78.31,28.98 78.69,29.36 ZM 73.00 103.00 C77.00,107.00 83.25,104.17 83.25,98.34 C83.25,93.04 76.66,90.55 72.26,94.20 C70.34,95.79 70.76,100.76 73.00,103.00 ZM 67.00 120.00 C64.37,122.63 61.84,122.53 59.17,119.69 C56.52,116.86 56.39,113.86 58.83,111.65 C60.96,109.73 66.07,109.47 67.80,111.20 C69.65,113.05 69.22,117.78 67.00,120.00 ZM 121.38 109.70 C120.24,111.24 118.36,112.64 117.21,112.81 C112.58,113.50 108.83,105.05 112.43,102.05 C114.94,99.98 120.26,101.18 121.95,104.20 C123.34,106.70 123.30,107.13 121.38,109.70 ZM 103.38 118.70 C102.24,120.24 100.36,121.64 99.21,121.81 C94.58,122.50 90.83,114.05 94.43,111.05 C96.94,108.98 102.26,110.18 103.95,113.20 C105.34,115.70 105.30,116.13 103.38,118.70 ZM 61.60 117.46 C63.10,118.95 63.45,118.97 64.78,117.65 C66.82,115.61 65.58,112.78 62.83,113.18 C59.99,113.60 59.49,115.35 61.60,117.46 ZM 96.38 116.55 C96.69,117.35 97.85,118.00 98.97,118.00 C100.47,118.00 101.00,117.35 101.00,115.50 C101.00,113.69 100.46,113.00 99.06,113.00 C96.76,113.00 95.60,114.53 96.38,116.55 ZM 114.38 107.55 C114.69,108.35 115.85,109.00 116.97,109.00 C118.47,109.00 119.00,108.35 119.00,106.50 C119.00,104.69 118.46,104.00 117.06,104.00 C114.76,104.00 113.60,105.53 114.38,107.55 Z" fill="rgb(255,255,255)"/>
<path d="M 96.62 54.71 C92.78,54.09 91.63,54.86 92.60,57.40 C91.22,53.78 91.91,53.00 96.50,53.00 C100.29,53.00 101.00,52.69 101.00,51.06 C101.00,49.49 100.19,49.06 96.75,48.81 C94.09,48.61 92.79,48.16 92.54,47.31 C92.79,48.18 94.18,48.61 97.25,48.80 C100.94,49.04 102.00,49.49 101.98,50.80 C101.95,54.17 100.37,55.32 96.62,54.71 Z" fill="rgb(200,200,200)"/>
</g>
</svg>
