<svg xmlns="http://www.w3.org/2000/svg" viewBox="30 18 126 118">
<path d="M 143.08 127.23 C148.12,121.60 147.36,118.31 137.85,104.41 C133.36,97.86 128.02,90.47 125.97,88.00 C123.92,85.53 118.36,77.88 113.62,71.01 L 105.00 58.52 L 105.00 46.65 C105.00,35.46 105.14,34.62 107.50,31.82 C110.52,28.23 110.67,25.67 108.00,23.00 C106.19,21.19 104.67,21.00 92.19,21.00 C82.13,21.00 77.88,21.37 76.52,22.36 C73.89,24.29 74.06,29.82 76.83,32.07 C78.84,33.69 79.00,34.72 79.00,45.99 L 79.00 58.16 L 75.28 63.83 C69.45,72.73 61.90,83.17 58.55,87.00 C53.93,92.26 40.04,112.67 38.40,116.58 C36.52,121.09 37.44,124.30 41.67,128.02 L 45.13 131.06 L 92.65 130.78 L 140.17 130.50 L 143.08 127.23 Z M 45.50 126.79 C46.92,127.61 60.23,127.95 91.28,127.97 C139.29,128.00 141.26,127.79 142.60,122.46 C143.45,119.06 142.02,116.23 132.76,103.00 C126.44,93.98 125.06,92.55 122.95,92.82 C121.60,93.00 115.78,93.22 110.00,93.32 C100.02,93.49 99.18,93.34 93.00,90.29 C85.23,86.44 76.28,84.00 69.98,84.00 C64.22,84.00 63.34,84.88 50.59,103.50 C39.44,119.79 38.75,122.92 45.50,126.79 Z M 101.72 89.91 C107.01,91.15 113.83,91.06 118.27,89.67 L 122.03 88.50 L 116.67 81.30 C113.72,77.34 109.10,70.71 106.41,66.57 C101.61,59.19 101.41,59.03 97.36,59.01 C94.50,59.00 93.02,58.51 92.60,57.41 C91.63,54.87 92.78,54.09 96.62,54.71 C100.37,55.32 101.95,54.17 101.98,50.80 C102.00,49.49 100.94,49.04 97.25,48.80 C93.83,48.59 92.50,48.08 92.50,47.00 C92.50,45.92 93.83,45.41 97.25,45.20 C101.13,44.95 102.00,44.55 102.00,43.00 C102.00,41.46 101.14,41.05 97.33,40.80 C90.92,40.39 90.45,38.21 96.68,37.81 C100.31,37.58 101.56,37.07 101.81,35.75 C102.11,34.18 101.13,34.00 92.07,34.00 L 82.00 34.00 L 82.00 60.17 L 75.50 69.69 C71.93,74.92 69.00,79.33 69.00,79.47 C69.00,79.62 71.14,80.03 73.76,80.37 C78.72,81.03 89.36,84.58 94.79,87.39 C96.52,88.29 99.64,89.42 101.72,89.91 Z M 81.03 107.48 C89.38,103.17 88.25,91.08 79.35,89.41 C72.38,88.10 66.12,93.70 67.50,100.00 C68.25,103.41 72.31,107.72 75.33,108.30 C76.52,108.54 77.63,108.79 77.80,108.86 C77.96,108.94 79.42,108.32 81.03,107.48 Z M 78.69 29.36 C79.08,29.74 85.26,29.93 92.44,29.78 C105.13,29.51 105.51,29.44 105.82,27.25 C106.14,25.01 106.09,25.00 92.07,25.00 C79.09,25.00 78.00,25.14 78.00,26.83 C78.00,27.84 78.31,28.98 78.69,29.36 Z M 73.00 103.00 C70.76,100.76 70.34,95.79 72.26,94.20 C76.66,90.55 83.25,93.04 83.25,98.34 C83.25,104.17 77.00,107.00 73.00,103.00 Z M 67.00 120.00 C64.37,122.63 61.84,122.53 59.17,119.69 C56.52,116.86 56.39,113.86 58.83,111.65 C60.96,109.73 66.07,109.47 67.80,111.20 C69.65,113.05 69.22,117.78 67.00,120.00 Z M 121.38 109.70 C120.24,111.24 118.36,112.64 117.21,112.81 C112.58,113.50 108.83,105.05 112.43,102.05 C114.94,99.98 120.26,101.18 121.95,104.20 C123.34,106.70 123.30,107.13 121.38,109.70 Z M 103.38 118.70 C102.24,120.24 100.36,121.64 99.21,121.81 C94.58,122.50 90.83,114.05 94.43,111.05 C96.94,108.98 102.26,110.18 103.95,113.20 C105.34,115.70 105.30,116.13 103.38,118.70 Z M 61.60 117.46 C63.10,118.95 63.45,118.97 64.78,117.65 C66.82,115.61 65.58,112.78 62.83,113.18 C59.99,113.60 59.49,115.35 61.60,117.46 Z M 96.38 116.55 C96.69,117.35 97.85,118.00 98.97,118.00 C100.47,118.00 101.00,117.35 101.00,115.50 C101.00,113.69 100.46,113.00 99.06,113.00 C96.76,113.00 95.60,114.53 96.38,116.55 Z M 114.38 107.55 C114.69,108.35 115.85,109.00 116.97,109.00 C118.47,109.00 119.00,108.35 119.00,106.50 C119.00,104.69 118.46,104.00 117.06,104.00 C114.76,104.00 113.60,105.53 114.38,107.55 Z" fill="rgb(2,2,2)"/>
<path d="M 96.62 54.71 C92.78,54.09 91.63,54.86 92.60,57.40 C91.22,53.78 91.91,53.00 96.50,53.00 C100.29,53.00 101.00,52.69 101.00,51.06 C101.00,49.49 100.19,49.06 96.75,48.81 C94.09,48.61 92.79,48.16 92.54,47.31 C92.79,48.18 94.18,48.61 97.25,48.80 C100.94,49.04 102.00,49.49 101.98,50.80 C101.95,54.17 100.37,55.32 96.62,54.71 Z" fill="rgb(69,69,69)"/>
</svg>
